<?xml version="1.0" encoding="UTF-8"?>
<svg width="24px" height="24px" viewBox="0 0 24 24" version="1.1" xmlns="http://www.w3.org/2000/svg" xmlns:xlink="http://www.w3.org/1999/xlink">
    <!-- Generator: sketchtool 55.1 (78136) - https://sketchapp.com -->
    <title>BF25AFB7-E18D-43EB-B663-69B0EB696412@2x</title>
    <desc>Created with sketchtool.</desc>
    <g id="Page-1" stroke="none" stroke-width="1" fill="none" fill-rule="evenodd">
        <g id="Desktop-HD" transform="translate(-1140.000000, -3071.000000)" fill="#FFFFFF">
            <g id="Group-8" transform="translate(0.000000, 2932.000000)">
                <g id="Group-7" transform="translate(950.000000, 49.000000)">
                    <path d="M212.675,90 L191.324,90 C190.592,90 190,90.593 190,91.325 L190,112.675 C190,113.407 190.592,114 191.324,114 L202.819,114 L202.819,104.706 L199.691,104.706 L199.691,101.084 L202.819,101.084 L202.819,98.413 C202.819,95.313 204.712,93.625 207.477,93.625 C208.802,93.625 209.941,93.724 210.272,93.768 L210.272,97.007 L208.354,97.008 C206.85,97.008 206.559,97.723 206.559,98.771 L206.559,101.084 L210.146,101.084 L209.679,104.706 L206.559,104.706 L206.559,114 L212.675,114 C213.406,114 214,113.407 214,112.675 L214,91.325 C214,90.593 213.406,90 212.675,90" id="Icon---FB"></path>
                </g>
            </g>
        </g>
    </g>
</svg>