<?xml version="1.0" encoding="UTF-8"?>
<svg width="24px" height="24px" viewBox="0 0 24 24" version="1.1" xmlns="http://www.w3.org/2000/svg" xmlns:xlink="http://www.w3.org/1999/xlink">
    <!-- Generator: sketchtool 55.1 (78136) - https://sketchapp.com -->
    <title>74901231-88E9-47B1-B9B1-4E14CF6E80B0@2x</title>
    <desc>Created with sketchtool.</desc>
    <g id="Page-1" stroke="none" stroke-width="1" fill="none" fill-rule="evenodd">
        <g id="Desktop-HD" transform="translate(-1220.000000, -3071.000000)" fill="#FFFFFF">
            <g id="Group-8" transform="translate(0.000000, 2932.000000)">
                <g id="Group-7" transform="translate(950.000000, 49.000000)">
                    <path d="M290.451333,110.450667 L286.892,110.450667 L286.892,104.881333 C286.892,103.552667 286.869333,101.844 285.042667,101.844 C283.19,101.844 282.908,103.292 282.908,104.786 L282.908,110.450667 L279.352667,110.450667 L279.352667,98.9973333 L282.764667,98.9973333 L282.764667,100.563333 L282.813333,100.563333 C283.288,99.6626667 284.449333,98.7133333 286.181333,98.7133333 C289.785333,98.7133333 290.451333,101.084667 290.451333,104.169333 L290.451333,110.450667 Z M275.338667,97.4326667 C274.195333,97.4326667 273.273333,96.508 273.273333,95.368 C273.273333,94.2286667 274.195333,93.304 275.338667,93.304 C276.477333,93.304 277.402,94.2286667 277.402,95.368 C277.402,96.508 276.477333,97.4326667 275.338667,97.4326667 L275.338667,97.4326667 Z M273.556,110.450667 L277.119333,110.450667 L277.119333,98.9973333 L273.556,98.9973333 L273.556,110.450667 Z M292.224,90 L271.770667,90 C270.794,90 270,90.7746667 270,91.7306667 L270,112.268667 C270,113.224 270.794,114 271.770667,114 L292.224,114 C293.202667,114 293.999333,113.224 293.999333,112.268667 L293.999333,91.7306667 C293.999333,90.7746667 293.202667,90 292.224,90 L292.224,90 Z" id="Icon---LinkedIn"></path>
                </g>
            </g>
        </g>
    </g>
</svg>