<?xml version="1.0" encoding="utf-8"?>
<!-- Generator: Adobe Illustrator 18.1.1, SVG Export Plug-In . SVG Version: 6.00 Build 0)  -->
<svg version="1.1" id="Layer_1" xmlns="http://www.w3.org/2000/svg" xmlns:xlink="http://www.w3.org/1999/xlink" x="0px" y="0px"
	 viewBox="-297 389 16 16" enable-background="new -297 389 16 16" xml:space="preserve">
<title>2CA0CC93-1FAD-4909-B154-BF4E8441CECC</title>
<desc>Created with sketchtool.</desc>
<g id="Page-1">
	<g id="icons" transform="translate(-292.000000, -128.000000)">
		<path id="icon_x2F_complete" fill="#FFFFFF" d="M1.4,529l7.2-7.2l-1.1-1.2l-6.1,6.1l-2.8-2.9l-1.1,1.1L1.4,529z M3,517
			c1.5,0,2.8,0.4,4.1,1.1c1.2,0.7,2.2,1.6,2.8,2.8c0.7,1.2,1.1,2.6,1.1,4.1s-0.4,2.8-1.1,4.1c-0.7,1.2-1.6,2.2-2.8,2.8
			C5.8,532.6,4.5,533,3,533s-2.8-0.4-4.1-1.1c-1.2-0.7-2.2-1.7-2.8-2.9c-0.7-1.2-1.1-2.6-1.1-4s0.4-2.8,1.1-4
			c0.7-1.2,1.7-2.2,2.9-2.9C0.2,517.4,1.6,517,3,517z"/>
	</g>
</g>
</svg>
