<?xml version="1.0" encoding="utf-8"?>
<!-- Generator: Adobe Illustrator 18.1.1, SVG Export Plug-In . SVG Version: 6.00 Build 0)  -->
<svg version="1.1" id="Layer_1" xmlns="http://www.w3.org/2000/svg" xmlns:xlink="http://www.w3.org/1999/xlink" x="0px" y="0px"
	 viewBox="0 90 612 612" enable-background="new 0 90 612 612" xml:space="preserve">
<path fill="#7DB9D2" d="M353.8,147.4H211c-26.4,0-48.4,20.8-48.4,47.2v10.2h-9c-26.4,0-48.4,20.8-48.4,47.2v344.2
	c0,26.4,22,48.4,48.4,48.4h248.6c26.4,0,47.2-22,47.2-48.4v-9h10.2c26.4,0,47.2-22,47.2-48.4V300.4L353.8,147.4z M353.8,200.7
	l99.7,99.7h-99.7V200.7z M411.2,596.2c0,5.6-4.1,10.2-9,10.2H153.6c-5.3,0-10.2-4.9-10.2-10.2V252c0-4.9,4.5-9,10.2-9h9v305.4
	c0,26.4,12.4,38.8,38.8,38.8h209.8V596.2z M468.6,538.8c0,5.6-4.1,10.2-9,10.2H211c-5.3,0-10.2-4.9-10.2-10.2V194.6
	c0-4.9,4.5-9,10.2-9h104.6v153h153V538.8z"/>
</svg>
