<?xml version="1.0" encoding="UTF-8"?>
<svg width="16px" height="16px" viewBox="0 0 16 16" version="1.1" xmlns="http://www.w3.org/2000/svg" xmlns:xlink="http://www.w3.org/1999/xlink">
    <!-- Generator: sketchtool 55.1 (78136) - https://sketchapp.com -->
    <title>1C6CE153-3C7A-40D1-BDAC-0D4D534FB534</title>
    <desc>Created with sketchtool.</desc>
    <g id="Page-1" stroke="none" stroke-width="1" fill="none" fill-rule="evenodd">
        <g id="icons" transform="translate(-180.000000, -221.000000)" fill="#7DB9D2" fill-rule="nonzero">
            <path d="M189.792,221 L196,221 L196,227.208 L194.208,227.208 L194.208,224.050667 L185.504,232.754667 L184.245333,231.496 L192.949333,222.792 L189.792,222.792 L189.792,221 Z M194.208,235.208 L194.208,229 L196,229 L196,235.208 C196,235.691558 195.822224,236.111109 195.466667,236.466667 C195.111109,236.822224 194.691558,237 194.208,237 L181.792,237 C181.29422,237 180.871113,236.822224 180.522667,236.466667 C180.17422,236.111109 180,235.691558 180,235.208 L180,222.792 C180,222.308442 180.17422,221.888891 180.522667,221.533333 C180.871113,221.177776 181.29422,221 181.792,221 L188,221 L188,222.792 L181.792,222.792 L181.792,235.208 L194.208,235.208 Z" id="icon/offiste"></path>
        </g>
    </g>
</svg>