<?xml version="1.0" encoding="UTF-8"?>
<svg width="17px" height="16px" viewBox="0 0 17 16" version="1.1" xmlns="http://www.w3.org/2000/svg" xmlns:xlink="http://www.w3.org/1999/xlink">
    <!-- Generator: sketchtool 55.1 (78136) - https://sketchapp.com -->
    <title>B3CC60E0-7EBD-46A4-ADD9-6EFCCE69A237</title>
    <desc>Created with sketchtool.</desc>
    <g id="Page-1" stroke="none" stroke-width="1" fill="none" fill-rule="evenodd">
        <g id="icons" transform="translate(-291.000000, -192.000000)">
            <g id="icon/invisible" transform="translate(292.000000, 192.000000)">
                <path d="M8,6.27668845 C8.38344418,6.27668845 8.74364392,6.3754529 9.08061002,6.57298475 C9.41757612,6.7705166 9.68482109,7.03776157 9.88235294,7.37472767 C10.0798848,7.71169377 10.1786492,8.07189351 10.1786492,8.45533769 C10.1786492,8.83878187 10.0798848,9.19898161 9.88235294,9.53594771 C9.68482109,9.87291381 9.41757612,10.1401588 9.08061002,10.3376906 C8.74364392,10.5352225 8.38344418,10.6339869 8,10.6339869 C7.61655582,10.6339869 7.25635608,10.5352225 6.91938998,10.3376906 C6.58242388,10.1401588 6.31517891,9.87291381 6.11764706,9.53594771 C5.92011521,9.19898161 5.82135076,8.83878187 5.82135076,8.45533769 C5.82135076,8.07189351 5.92011521,7.71169377 6.11764706,7.37472767 C6.31517891,7.03776157 6.58242388,6.7705166 6.91938998,6.57298475 C7.25635608,6.3754529 7.61655582,6.27668845 8,6.27668845 Z M8,12.0980392 C8.66231268,12.0980392 9.27232837,11.9353684 9.83006536,11.6100218 C10.3878024,11.2846752 10.8293375,10.84314 11.1546841,10.2854031 C11.4800307,9.72766606 11.6427015,9.11765037 11.6427015,8.45533769 C11.6427015,7.79302501 11.4800307,7.18300932 11.1546841,6.62527233 C10.8293375,6.06753534 10.3878024,5.62600017 9.83006536,5.30065359 C9.27232837,4.97530702 8.66231268,4.81263617 8,4.81263617 C7.33768732,4.81263617 6.72767163,4.97530702 6.16993464,5.30065359 C5.61219765,5.62600017 5.17066248,6.06753534 4.8453159,6.62527233 C4.51996932,7.18300932 4.35729847,7.79302501 4.35729847,8.45533769 C4.35729847,9.11765037 4.51996932,9.72766606 4.8453159,10.2854031 C5.17066248,10.84314 5.61219765,11.2846752 6.16993464,11.6100218 C6.72767163,11.9353684 7.33768732,12.0980392 8,12.0980392 Z M8,3 C9.19681063,3 10.3355066,3.23238693 11.416122,3.69716776 C12.4618789,4.15032906 13.3827121,4.78939312 14.1786492,5.61437908 C14.9745864,6.43936505 15.5816973,7.38634179 16,8.45533769 C15.5816973,9.52433359 14.9745864,10.4684055 14.1786492,11.2875817 C13.3827121,12.1067579 12.4618789,12.7429171 11.416122,13.1960784 C10.3355066,13.6608593 9.19681063,13.8932462 8,13.8932462 C6.80318937,13.8932462 5.66449342,13.6608593 4.583878,13.1960784 C3.53812113,12.7429171 2.61728793,12.1067579 1.82135076,11.2875817 C1.02541359,10.4684055 0.418302745,9.52433359 0,8.45533769 C0.418302745,7.38634179 1.02541359,6.43936505 1.82135076,5.61437908 C2.61728793,4.78939312 3.53812113,4.15032906 4.583878,3.69716776 C5.66449342,3.23238693 6.80318937,3 8,3 Z" id="" fill="#7DB9D2" fill-rule="nonzero" opacity="0.400000006"></path>
                <path d="M15,1 L1,15" id="Path-2" stroke="#FFFFFF" stroke-width="3"></path>
                <path d="M15,1 L1,15" id="Path-2" stroke="#979797"></path>
            </g>
        </g>
    </g>
</svg>