<?xml version="1.0" encoding="utf-8"?>
<!-- Generator: Adobe Illustrator 18.1.1, SVG Export Plug-In . SVG Version: 6.00 Build 0)  -->
<svg version="1.1" id="Layer_1" xmlns="http://www.w3.org/2000/svg" xmlns:xlink="http://www.w3.org/1999/xlink" x="0px" y="0px"
	 viewBox="-297 389 16 16" enable-background="new -297 389 16 16" xml:space="preserve">
<title>AEFC1D57-E116-4C47-A1A2-E55526F51D15</title>
<desc>Created with sketchtool.</desc>
<g id="Page-1">
	<g id="icons" transform="translate(-292.000000, -64.000000)">
		<path id="icon_x2F_global" fill="#FFFFFF" d="M3,453c4.4,0,8,3.6,8,8s-3.6,8-8,8s-8-3.6-8-8S-1.4,453,3,453z M6.1,458.5
			c0.1,0,0.2,0,0.2,0c0.1-0.1,0-0.1-0.1-0.2c-0.1,0-0.3,0.1-0.4,0.1c-0.1,0.1-0.1,0.1-0.2,0.2c0-0.1,0.1-0.2,0.1-0.2
			c0.1-0.1,0.1-0.1,0.2-0.2c0.2-0.1,0.4-0.1,0.5-0.1c0.2,0,0.4,0,0.5,0.1c0,0,0.2-0.2,0.2-0.3c0.1-0.1,0.2,0,0.3-0.1
			c0,0,0-0.2,0-0.2c-0.2,0-0.2-0.1-0.2-0.3c0,0,0,0-0.1,0.1c0-0.2-0.2,0-0.3-0.1c-0.2-0.1-0.2-0.2-0.3-0.4c0-0.1-0.2-0.1-0.2-0.2
			c0-0.1-0.1-0.2-0.2-0.2c-0.1,0-0.2,0.2-0.2,0.2c-0.1-0.1-0.1,0-0.2,0.1c-0.1,0-0.1,0-0.2,0.1c0.2-0.1-0.1-0.2-0.2-0.1
			c0.1,0,0.1-0.2,0-0.3h0.1c0-0.1-0.3-0.2-0.4-0.2s-0.6-0.2-0.7-0.1c-0.1,0.1,0,0.3,0,0.4c0,0.1-0.1,0.2-0.1,0.3
			c0,0.2,0.3,0.1,0.2,0.4c-0.1,0.1-0.2,0.2-0.3,0.3c-0.1,0.1,0,0.3,0.1,0.4c0.1,0.1-0.1,0.2-0.2,0.2C4.2,458,4,457.8,4,457.6
			c0-0.1,0-0.2-0.2-0.3c-0.1,0-0.3-0.1-0.3,0c-0.1-0.2-0.3-0.2-0.4-0.3c-0.2-0.1-0.4-0.1-0.6,0c0.1,0,0-0.3-0.2-0.3
			c0.1-0.1,0-0.2,0.1-0.3c0-0.1,0.1-0.2,0.1-0.2c0,0,0.2-0.3,0.2-0.3c0.2,0,0.4,0,0.5-0.1c0.1-0.1,0.1-0.2,0.2-0.4
			c0.1-0.2,0.3,0,0.4,0.1c0.2,0,0.2-0.2,0.1-0.3c0.1,0,0-0.2-0.1-0.3c-0.1,0-0.4,0.1-0.3,0.1c0,0-0.3,0.5-0.4,0.2
			c0-0.1-0.1-0.3-0.2-0.3c-0.1,0-0.1,0.1-0.2,0.1c0-0.1-0.3-0.2-0.4-0.2c0.2-0.1,0-0.2-0.1-0.3c-0.1-0.1-0.3-0.1-0.4,0
			c-0.2,0.2,0.2,0.3,0.3,0.3c0,0,0.2,0.1,0.1,0.1c-0.1,0-0.2,0.1-0.3,0.1c-0.1,0.1,0.1,0.2,0,0.3c-0.1-0.1-0.1-0.2-0.2-0.3
			c0.1,0.1-0.4,0-0.4,0c-0.2,0-0.4,0.1-0.5-0.1c0,0,0-0.3,0-0.2c-0.1-0.1-0.2-0.1-0.2-0.2c-0.3,0.1-0.7,0.3-1,0.4c0,0,0.1,0,0.1,0
			c0.1,0,0.2-0.1,0.2-0.1c0.1,0,0.3-0.2,0.4-0.1c0,0,0,0,0.1-0.1c0.1,0.1,0.1,0.2,0.2,0.3c-0.1,0-0.2,0-0.3,0c-0.1,0-0.2,0-0.2,0.1
			c0,0.1,0.1,0.1,0.1,0.2c-0.1-0.1-0.2-0.2-0.4-0.3c-0.1,0-0.2,0-0.2,0c-1,0.6-1.8,1.4-2.4,2.3c0,0,0.1,0.1,0.1,0.1
			c0.1,0,0,0.3,0.2,0.2c0.1,0.1,0.1,0.1,0,0.2c0,0,0.4,0.3,0.5,0.3c0.1,0.1,0.2,0.1,0.2,0.2c0,0.1,0,0.2-0.1,0.2
			c0,0-0.2-0.2-0.2-0.1c0,0.1,0,0.3,0.1,0.3c-0.2,0-0.1,0.7-0.1,0.8c0,0,0,0,0,0c0,0.1,0.1,0.6,0.3,0.6c-0.1,0,0.2,0.5,0.3,0.5
			c0.1,0.1,0.3,0.2,0.4,0.3c0.1,0.1,0.1,0.4,0.2,0.5c0,0.1,0.2,0.3,0.2,0.4c0,0,0,0-0.1,0c0.1,0.1,0.2,0.1,0.3,0.3
			c0,0.1,0,0.3,0.1,0.2c0-0.2-0.1-0.5-0.2-0.6c-0.1-0.1-0.1-0.2-0.2-0.3c-0.1-0.1-0.1-0.2-0.1-0.3c0,0,0.3,0.1,0.2,0.1
			c-0.1,0.2,0.3,0.6,0.4,0.7c0,0,0.3,0.3,0.1,0.3c0.1,0,0.3,0.2,0.4,0.3c0.1,0.2,0.1,0.4,0.1,0.5c0.1,0.2,0.4,0.3,0.5,0.4
			c0.1,0.1,0.3,0.2,0.4,0.2c0.2,0.1,0.3,0,0.5,0c0.3,0,0.3,0.3,0.5,0.4c0.1,0.1,0.4,0.2,0.6,0.1c-0.1,0,0.2,0.4,0.2,0.5
			c0.1,0.1,0.3,0.2,0.4,0.3c0,0,0.1-0.1,0.1-0.1c0,0.1,0.2,0.3,0.3,0.3c0.1,0,0.1-0.2,0.1-0.3c-0.2,0.1-0.4,0-0.5-0.2
			c0-0.1-0.2-0.3,0-0.3c0.2,0,0.1-0.2,0-0.3c0-0.1-0.2-0.2-0.2-0.4c-0.1,0.1-0.3,0.1-0.3,0c0,0,0,0.1,0,0.1c-0.1,0-0.1,0-0.2,0
			c0-0.1,0-0.3,0.1-0.4c0.1-0.2,0.4-0.6-0.1-0.5c-0.2,0-0.2,0.1-0.3,0.2c-0.1,0.1,0,0.2-0.2,0.3c-0.1,0-0.4,0-0.5,0
			c-0.2-0.1-0.3-0.5-0.3-0.7c0-0.3,0.1-0.5,0-0.8c0.1-0.1,0.1-0.2,0.2-0.2c0.1,0,0.1,0,0.2-0.1c0,0-0.1-0.1-0.1-0.1
			c0.2,0.1,0.4-0.1,0.6,0c0.1,0.1,0.2,0.1,0.2,0c0,0-0.1-0.2,0-0.2c0,0.2,0.1,0.2,0.3,0.1c0.1,0.1,0.2,0,0.3,0.1
			c0.1,0.1,0.1,0.2,0.3,0c0.1,0.1,0.1,0.1,0.1,0.2c0,0.1,0.1,0.4,0.2,0.5c0.2,0.1,0.2-0.2,0.1-0.4c0,0,0-0.4,0-0.4
			c-0.3-0.1-0.2-0.3,0-0.5c0,0,0.3-0.1,0.4-0.2c0.1-0.1,0.2-0.2,0.2-0.4c0.1,0,0.1,0,0.1-0.1c0,0-0.1-0.1-0.2-0.1
			c0.1,0,0.1-0.1,0-0.2c0.1-0.1,0.1-0.2,0.2-0.2c0.1,0.2,0.3,0,0.2-0.1c0.1-0.1,0.3-0.1,0.4-0.2c0.2,0,0-0.2,0.1-0.3
			c0.1-0.1,0.2-0.1,0.3-0.1c0,0,0.3-0.1,0.2-0.2c0.2,0,0.5-0.2,0.3-0.3C6.4,458.6,6.2,458.5,6.1,458.5L6.1,458.5z M4.5,465
			c0,0.2,0,0.5,0.1,0.8c0,0.1,0,0.4-0.1,0.5c-0.1,0.1-0.3,0.2-0.3,0.4c0,0.1,0,0.2,0.1,0.3c0,0.2-0.2,0.3-0.2,0.4c0,0,0,0.1,0,0.2
			c1.4-0.2,2.7-1,3.7-2c-0.1-0.1-0.2,0-0.3-0.1c-0.1,0-0.1-0.1-0.2-0.1c0-0.2-0.2-0.3-0.4-0.4c-0.1-0.1-0.2-0.2-0.4-0.2
			c0,0-0.2,0.1-0.2,0.1c-0.1-0.1-0.2-0.2-0.4-0.2c-0.2-0.1-0.3-0.3-0.4-0.1c-0.1,0.1,0,0.2-0.1,0.3c-0.1-0.1,0.1-0.2,0-0.4
			c-0.1-0.1-0.3,0.1-0.4,0.2c-0.1,0.1-0.1,0.1-0.2,0.1c-0.1,0.1-0.1,0.2-0.1,0.2C4.7,465.1,4.6,465.1,4.5,465L4.5,465z"/>
	</g>
</g>
</svg>
