<?xml version="1.0" encoding="utf-8"?>
<!-- Generator: Adobe Illustrator 18.1.1, SVG Export Plug-In . SVG Version: 6.00 Build 0)  -->
<svg version="1.1" id="Layer_1" xmlns="http://www.w3.org/2000/svg" xmlns:xlink="http://www.w3.org/1999/xlink" x="0px" y="0px"
	 viewBox="-297 388.5 16 16" enable-background="new -297 388.5 16 16" xml:space="preserve">
<title>B084B31C-DF15-48BD-9445-DE4D6D0E1517</title>
<desc>Created with sketchtool.</desc>
<g id="Page-1">
	<g id="icons" transform="translate(-180.000000, -192.000000)">
		<path id="icon_x2F_mail" fill="#FFFFFF" d="M-102.6,585.3v-1.6l-6.4,4.1l-6.4-4.1v1.6l6.4,4L-102.6,585.3z M-102.6,582
			c0.4,0,0.8,0.2,1.1,0.5c0.3,0.3,0.5,0.7,0.5,1.1v9.7c0,0.4-0.2,0.8-0.5,1.1c-0.3,0.3-0.7,0.5-1.1,0.5h-12.8
			c-0.4,0-0.8-0.2-1.1-0.5c-0.3-0.3-0.5-0.7-0.5-1.1v-9.7c0-0.4,0.2-0.8,0.5-1.1c0.3-0.3,0.7-0.5,1.1-0.5H-102.6z"/>
	</g>
</g>
</svg>
