<?xml version="1.0" encoding="utf-8"?>
<!-- Generator: Adobe Illustrator 18.1.1, SVG Export Plug-In . SVG Version: 6.00 Build 0)  -->
<svg version="1.1" id="Layer_1" xmlns="http://www.w3.org/2000/svg" xmlns:xlink="http://www.w3.org/1999/xlink" x="0px" y="0px"
	 viewBox="-297 389 16 16" enable-background="new -297 389 16 16" xml:space="preserve">
<title>8538DB77-19D9-4CA1-AB41-9706FDE40B7D</title>
<desc>Created with sketchtool.</desc>
<g id="Page-1">
	<g id="icons" transform="translate(-180.000000, -253.000000)">
		<path id="icon_x2F_user" fill="#5E727A" d="M-114.3,654.5v0.9h10.7v-0.9c0-0.6-0.3-1.1-1-1.5c-0.6-0.4-1.3-0.7-2.2-0.9
			c-0.8-0.2-1.5-0.3-2.2-0.3s-1.4,0.1-2.2,0.3c-0.9,0.2-1.6,0.5-2.2,0.9C-114,653.4-114.3,653.9-114.3,654.5z M-106.3,647.3
			c0-0.5-0.1-0.9-0.4-1.3c-0.2-0.4-0.6-0.7-1-1c-0.4-0.2-0.9-0.4-1.3-0.4s-0.9,0.1-1.3,0.4c-0.4,0.2-0.7,0.6-1,1
			c-0.2,0.4-0.4,0.9-0.4,1.3c0,0.5,0.1,0.9,0.4,1.3s0.6,0.7,1,1c0.4,0.2,0.9,0.4,1.3,0.4s0.9-0.1,1.3-0.4c0.4-0.2,0.7-0.6,1-1
			S-106.3,647.8-106.3,647.3z M-117,643.8c0-0.5,0.2-0.9,0.5-1.3c0.3-0.4,0.8-0.5,1.3-0.5h12.4c0.5,0,0.9,0.2,1.3,0.5
			c0.4,0.4,0.5,0.8,0.5,1.3v12.4c0,0.5-0.2,0.9-0.5,1.3c-0.4,0.4-0.8,0.5-1.3,0.5h-12.4c-0.5,0-0.9-0.2-1.3-0.5
			c-0.3-0.4-0.5-0.8-0.5-1.3V643.8z"/>
	</g>
</g>
</svg>
