<?xml version="1.0" encoding="utf-8"?>
<!-- Generator: Adobe Illustrator 18.1.1, SVG Export Plug-In . SVG Version: 6.00 Build 0)  -->
<svg version="1.1" id="Layer_1" xmlns="http://www.w3.org/2000/svg" xmlns:xlink="http://www.w3.org/1999/xlink" x="0px" y="0px"
	 viewBox="-297 389 16 16" enable-background="new -297 389 16 16" xml:space="preserve">
<title>45F0888F-3255-4E73-A335-8A1C49E3B520</title>
<desc>Created with sketchtool.</desc>
<g id="Page-1">
	<g id="icons" transform="translate(-292.000000, -160.000000)">
		<path id="icon_x2F_live" fill="#FFFFFF" d="M3,563.4c1.2,0,2.2-0.3,3.2-0.9c1-0.6,1.7-1.3,2.3-2.3c0.6-1,0.9-2.1,0.9-3.2
			s-0.3-2.2-0.9-3.2c-0.6-1-1.3-1.7-2.3-2.3c-1-0.6-2.1-0.9-3.2-0.9s-2.2,0.3-3.2,0.9c-1,0.6-1.7,1.3-2.3,2.3
			c-0.6,1-0.9,2.1-0.9,3.2s0.3,2.2,0.9,3.2c0.6,1,1.3,1.7,2.3,2.3C0.8,563.1,1.8,563.4,3,563.4z M3,549c1.5,0,2.8,0.4,4.1,1.1
			c1.2,0.7,2.2,1.6,2.8,2.8c0.7,1.2,1.1,2.6,1.1,4.1s-0.4,2.8-1.1,4.1c-0.7,1.2-1.6,2.2-2.8,2.8C5.8,564.6,4.5,565,3,565
			s-2.8-0.4-4.1-1.1c-1.2-0.7-2.2-1.7-2.8-2.9c-0.7-1.2-1.1-2.6-1.1-4s0.4-2.8,1.1-4c0.7-1.2,1.7-2.2,2.9-2.9
			C0.2,549.4,1.6,549,3,549z M3,553c0.7,0,1.4,0.2,2,0.5s1.1,0.8,1.5,1.5s0.5,1.3,0.5,2s-0.2,1.4-0.5,2s-0.8,1.1-1.5,1.5
			S3.7,561,3,561s-1.4-0.2-2-0.5s-1.1-0.8-1.5-1.5s-0.5-1.3-0.5-2s0.2-1.4,0.5-2s0.8-1.1,1.5-1.5S2.3,553,3,553z"/>
	</g>
</g>
</svg>
