<?xml version="1.0" encoding="UTF-8"?>
<svg width="24px" height="20px" viewBox="0 0 24 20" version="1.1" xmlns="http://www.w3.org/2000/svg" xmlns:xlink="http://www.w3.org/1999/xlink">
    <!-- Generator: sketchtool 55.1 (78136) - https://sketchapp.com -->
    <title>D5F5C7E1-9A30-47D0-919A-1DD449068779@2x</title>
    <desc>Created with sketchtool.</desc>
    <g id="Page-1" stroke="none" stroke-width="1" fill="none" fill-rule="evenodd">
        <g id="Desktop-HD" transform="translate(-1180.000000, -3073.000000)" fill="#FFFFFF">
            <g id="Group-8" transform="translate(0.000000, 2932.000000)">
                <g id="Group-7" transform="translate(950.000000, 49.000000)">
                    <path d="M237.548,112 C246.605,112 251.558,104.306588 251.558,97.6344527 C251.558,97.4160472 251.553,97.1976416 251.544,96.9823122 C252.505,96.2696744 253.341,95.3806716 254,94.3675981 C253.118,94.7695463 252.169,95.0402461 251.173,95.1622661 C252.189,94.5378108 252.969,93.5483209 253.338,92.3691361 C252.386,92.9474494 251.333,93.3688798 250.211,93.5954883 C249.313,92.6131761 248.033,92 246.617,92 C243.898,92 241.692,94.2609587 241.692,97.0479364 C241.692,97.4447578 241.735,97.8302999 241.82,98.199436 C237.728,97.9882082 234.099,95.9794924 231.671,92.9238657 C231.247,93.6703409 231.004,94.5378108 231.004,95.4627019 C231.004,97.2140477 231.873,98.7603179 233.195,99.6647014 C232.387,99.6390669 231.629,99.411433 230.965,99.0330684 C230.964,99.0546014 230.964,99.0761343 230.964,99.0976673 C230.964,101.543194 232.661,103.584722 234.914,104.047167 C234.501,104.163035 234.065,104.224558 233.616,104.224558 C233.299,104.224558 232.99,104.192771 232.691,104.134325 C233.317,106.139964 235.135,107.599077 237.29,107.641118 C235.605,108.994617 233.482,109.801589 231.175,109.801589 C230.777,109.801589 230.385,109.778006 230,109.731864 C232.179,111.164317 234.767,112 237.548,112" id="Icon---Twitter"></path>
                </g>
            </g>
        </g>
    </g>
</svg>